HIERARCHY
ROOT root
{
	OFFSET 0.000000 0.000000 0.000000
	CHANNELS 6 Xposition Yposition Zposition Zrotation Yrotation Xrotation
	JOINT lhip
	{
		OFFSET 0.058581 -0.082280 -0.017664
		CHANNELS 3 Zrotation Yrotation Xrotation
		JOINT lknee
		{
			OFFSET 0.043451 -0.386469 0.008037
			CHANNELS 3 Zrotation Yrotation Xrotation
			JOINT lankle
			{
				OFFSET -0.014790 -0.426874 -0.037428
				CHANNELS 3 Zrotation Yrotation Xrotation
				JOINT ltoe
				{
					OFFSET 0.041054 -0.060286 0.122042
					CHANNELS 3 Zrotation Yrotation Xrotation
					End Site
					{
						OFFSET 0.000000 0.000000 0.000000
					}
				}
			}
		}
	}
	JOINT rhip
	{
		OFFSET -0.060310 -0.090513 -0.013543
		CHANNELS 3 Zrotation Yrotation Xrotation
		JOINT rknee
		{
			OFFSET -0.043257 -0.383688 -0.004843
			CHANNELS 3 Zrotation Yrotation Xrotation
			JOINT rankle
			{
				OFFSET 0.019056 -0.420046 -0.034562
				CHANNELS 3 Zrotation Yrotation Xrotation
				JOINT rtoe
				{
					OFFSET -0.034840 -0.062106 0.130323
					CHANNELS 3 Zrotation Yrotation Xrotation
					End Site
					{
						OFFSET 0.000000 0.000000 0.000000
					}
				}
			}
		}
	}
	JOINT lowerback
	{
		OFFSET 0.004439 0.124404 -0.038385
		CHANNELS 3 Zrotation Yrotation Xrotation
		JOINT upperback
		{
			OFFSET 0.004488 0.137956 0.026820
			CHANNELS 3 Zrotation Yrotation Xrotation
			JOINT chest
			{
				OFFSET -0.002265 0.056032 0.002855
				CHANNELS 3 Zrotation Yrotation Xrotation
				JOINT lowerneck
				{
					OFFSET -0.013390 0.211636 -0.033468
					CHANNELS 3 Zrotation Yrotation Xrotation
					JOINT upperneck
					{
						OFFSET 0.010113 0.088937 0.050410
						CHANNELS 3 Zrotation Yrotation Xrotation
						End Site
						{
							OFFSET 0.000000 0.000000 0.000000
						}
					}
				}
				JOINT lclavicle
				{
					OFFSET 0.071702 0.114000 -0.018898
					CHANNELS 3 Zrotation Yrotation Xrotation
					JOINT lshoulder
					{
						OFFSET 0.122921 0.045205 -0.019046
						CHANNELS 3 Zrotation Yrotation Xrotation
						JOINT lelbow
						{
							OFFSET 0.255332 -0.015649 -0.022946
							CHANNELS 3 Zrotation Yrotation Xrotation
							JOINT lwrist
							{
								OFFSET 0.265709 0.012698 -0.007375
								CHANNELS 3 Zrotation Yrotation Xrotation
								End Site
								{
									OFFSET 0.000000 0.000000 0.000000
								}
							}
						}
					}
				}
				JOINT rclavicle
				{
					OFFSET -0.082954 0.112472 -0.023707
					CHANNELS 3 Zrotation Yrotation Xrotation
					JOINT rshoulder
					{
						OFFSET -0.113228 0.046853 -0.008472
						CHANNELS 3 Zrotation Yrotation Xrotation
						JOINT relbow
						{
							OFFSET -0.260127 -0.014369 -0.031269
							CHANNELS 3 Zrotation Yrotation Xrotation
							JOINT rwrist
							{
								OFFSET -0.269108 0.006794 -0.006027
								CHANNELS 3 Zrotation Yrotation Xrotation
								End Site
								{
									OFFSET 0.000000 0.000000 0.000000
								}
							}
						}
					}
				}
			}
		}
	}
}
MOTION
Frames: 17
Frame Time: 0.033333
-0.037904 -1.670234 0.924391 -147.658701 -1.857204 95.557197 1.469643 -9.667125 -25.293175 -9.891289 0.452569 40.931347 11.039765 5.192106 -28.153585 0.000000 -0.000000 0.000000 -2.279423 -5.690453 -14.014728 -2.922521 -12.350021 59.586623 -0.866392 -2.538827 -13.240363 0.000000 -0.000000 0.000000 -6.570307 8.815597 17.082167 -1.179062 2.134310 4.429744 1.561913 6.000079 1.430017 4.295365 -18.100238 -6.194609 16.075340 -21.594058 -7.516325 -16.341860 -6.714755 -4.538045 -63.708949 -14.771759 19.945359 156.223543 -58.700588 -129.562964 22.497740 1.777929 -21.846236 12.987793 21.761101 -2.695122 69.299778 24.398977 24.547555 -175.637723 85.226062 -151.789581 8.937723 13.165804 -18.766853 
-0.035109 -1.665427 0.920030 -147.256519 -2.340740 95.702730 1.394607 -9.186819 -25.879421 -10.366100 0.285538 41.976629 11.690024 4.919415 -28.759932 0.000000 -0.000000 0.000000 -2.388206 -5.988977 -14.755893 -2.786036 -11.950692 61.103873 -1.237082 -2.847047 -13.348176 0.000000 -0.000000 0.000000 -6.990430 8.898797 17.564939 -1.273220 2.134173 4.421190 1.697288 5.701578 1.116171 3.736931 -19.827262 -5.603506 16.278287 -20.922189 -9.671228 -17.288396 -5.475220 -2.885656 -63.389979 -11.197919 19.627469 156.844122 -62.110586 -131.614278 24.144763 3.571684 -20.772686 13.517028 20.865627 -1.808312 70.388443 20.339106 24.599216 166.560041 87.712365 -172.480553 8.306765 13.170285 -18.163666 
-0.031592 -1.659530 0.915049 -147.041909 -2.641129 96.029858 1.643872 -8.354244 -26.784170 -10.628881 0.618814 43.438461 12.120407 4.656588 -29.485426 0.000000 -0.000000 0.000000 -2.270401 -5.996560 -15.721770 -2.652255 -11.764665 62.576480 -1.008562 -3.777168 -13.560292 0.000000 -0.000000 0.000000 -7.243025 8.838344 17.574725 -1.456591 2.299431 4.337311 1.688822 5.517539 1.269181 3.057363 -20.846567 -5.967286 16.547701 -20.445407 -12.044523 -18.063266 -4.662253 -1.408113 -62.594738 -8.162042 19.122631 156.890195 -65.900327 -133.192099 24.850539 4.495255 -19.948004 14.134219 19.971462 -0.927205 70.237837 17.293541 23.825005 62.586976 87.684157 81.961602 8.511921 12.583410 -17.668531 
-0.027304 -1.652456 0.910117 -146.601455 -3.143474 95.779950 1.654876 -7.729619 -27.069551 -11.902900 -0.104408 44.264772 11.974757 5.425712 -30.540543 0.000000 -0.000000 0.000000 -2.180774 -6.426153 -15.926045 -2.483346 -11.521182 63.821029 -0.875312 -4.879563 -13.992932 0.000000 -0.000000 0.000000 -7.689578 8.836206 18.423612 -1.649872 2.221996 4.130378 1.680347 5.235195 1.121698 2.514402 -21.934673 -6.884325 16.578224 -20.367513 -14.078789 -18.658382 -3.940949 -0.282081 -61.581862 -5.866881 18.932042 156.792191 -70.111127 -134.785437 25.427501 6.014222 -21.101311 14.533371 19.597080 -0.485356 70.235089 14.571747 23.787432 32.763498 83.856392 49.005903 7.820734 13.122413 -19.111168 
-0.021907 -1.643225 0.904177 -146.419655 -3.648822 95.904626 2.113300 -7.154042 -27.466250 -12.746789 -0.215090 45.405173 11.899457 5.380055 -31.328914 0.000000 -0.000000 0.000000 -1.901926 -6.765325 -16.332502 -2.108385 -11.266363 64.939600 -0.908805 -6.071742 -14.921714 0.000000 -0.000000 0.000000 -8.655810 9.130154 18.184366 -1.618537 2.024484 4.364332 1.655618 4.977718 1.155599 1.958195 -22.008657 -8.474645 16.637968 -20.774087 -16.157243 -18.641319 -3.849467 0.691928 -60.837258 -4.151450 18.981156 156.141031 -74.771881 -134.993205 28.656640 6.300461 -24.040546 15.341324 19.179580 0.076130 69.661445 12.602447 23.390312 27.411560 80.352273 43.631669 6.747228 12.466689 -20.352603 
-0.014782 -1.632383 0.899598 -146.694003 -4.613432 95.521320 2.063567 -6.187646 -26.878868 -13.671859 -0.446596 45.788970 12.164704 5.665245 -31.888244 0.000000 -0.000000 0.000000 -2.140225 -7.262669 -16.166562 -1.271374 -10.811711 65.781941 -0.851483 -7.099305 -15.025203 0.000000 -0.000000 0.000000 -10.408933 9.877513 19.078341 -1.890460 1.789829 4.284262 1.812169 4.828144 0.659155 1.563806 -22.796514 -10.440588 17.070481 -20.977002 -17.973716 -18.489157 -4.059000 1.388521 -59.647763 -2.454066 19.322345 155.179781 -78.290047 -137.161312 35.640123 8.686181 -26.150067 16.023133 19.355259 0.024557 69.948066 10.289953 23.552833 21.979532 77.398793 36.258689 6.660209 11.577583 -18.161619 
-0.007134 -1.621135 0.894503 -146.467553 -4.892419 95.743315 2.805547 -5.651628 -27.257355 -13.813809 -0.447117 46.742806 11.713607 5.049239 -32.748027 0.000000 -0.000000 0.000000 -2.099977 -7.812519 -16.661169 -0.923282 -11.869427 66.924769 -1.025282 -7.291286 -14.293683 0.000000 -0.000000 0.000000 -11.288195 9.754573 19.142761 -2.281634 1.573287 4.632454 1.555955 4.579181 -0.496667 1.295976 -22.787066 -12.468828 16.929854 -21.926982 -19.853145 -19.284999 -4.288052 2.865298 -57.368652 -0.869217 18.190997 153.269754 -80.159254 -134.552486 24.995872 6.147780 -26.132420 17.139748 19.577156 1.438880 70.107721 9.114135 22.898616 17.410062 75.427225 31.292492 11.418790 10.907984 -16.942254 
0.001875 -1.608660 0.890552 -146.528285 -4.838400 95.832490 3.995428 -4.859334 -27.248984 -14.228930 -0.687028 47.344171 11.713569 4.936111 -33.357763 0.000000 -0.000000 0.000000 -2.193448 -8.937947 -16.984450 -0.346743 -12.906960 68.214350 -1.994158 -7.106557 -12.750813 0.000000 -0.000000 0.000000 -11.976766 9.820103 19.216642 -2.646435 1.347097 4.630384 1.176531 4.344421 -0.997340 0.878359 -22.616227 -14.343343 17.313879 -22.326052 -21.753249 -19.474073 -4.530168 3.320215 -56.045272 0.123102 18.339307 156.311437 -81.045677 -139.119223 25.254661 7.212044 -26.543632 17.882112 19.440956 1.810263 70.547677 7.817869 23.118402 18.145567 74.708182 31.442055 11.551852 9.319893 -15.933772 
0.012237 -1.594512 0.887439 -147.199246 -4.456074 95.848786 5.796416 -3.071815 -26.715501 -14.693674 -0.768034 47.478539 11.428017 4.101328 -33.825173 0.000000 -0.000000 0.000000 -2.967181 -10.844946 -16.798616 0.995849 -14.177692 69.197123 -3.036922 -5.201255 -12.785387 0.000000 -0.000000 0.000000 -12.392366 9.945433 19.456303 -3.218961 1.297546 4.143540 0.773251 4.225485 -1.848999 0.303806 -22.857472 -15.770260 17.356524 -23.238199 -22.762239 -19.531695 -4.789276 3.952722 -54.612322 1.345969 17.935283 165.238860 -80.350079 -148.487876 26.763069 7.177048 -25.765249 18.141496 19.602867 2.568917 71.312243 6.294693 22.277433 20.823747 75.307233 33.712263 10.883349 9.934195 -16.631962 
0.024144 -1.579974 0.885310 -149.038613 -4.204663 96.229325 7.650652 -1.343695 -26.163327 -15.285720 -0.959966 47.362197 10.456188 3.387944 -34.092197 0.000000 -0.000000 0.000000 -4.526786 -12.455983 -17.283746 1.926572 -14.584120 70.504694 -3.436754 -3.822296 -14.823452 0.000000 -0.000000 0.000000 -13.342006 10.192278 18.414365 -3.867839 1.580520 4.144381 0.303236 4.121974 -2.836109 -0.124678 -23.085275 -16.608132 17.029988 -23.937733 -23.663972 -19.962108 -4.422521 4.241752 -52.977293 2.528628 18.119263 170.663767 -75.953631 -153.707137 27.536113 8.490499 -24.428620 18.792114 19.250752 2.954584 71.351544 5.158612 22.142554 30.137224 78.413671 42.472424 11.150765 9.513025 -16.897017 
0.036889 -1.566150 0.884263 -151.790248 -3.142933 96.939237 10.342031 -0.237615 -25.831328 -15.571990 -0.597940 47.866941 9.249580 3.145255 -34.349676 0.000000 -0.000000 0.000000 -6.547878 -13.136618 -18.615954 1.025212 -15.225024 71.337236 -2.991038 -4.737170 -18.909317 0.000000 -0.000000 0.000000 -13.097917 9.622253 16.977207 -4.732255 2.447809 2.758769 -0.484642 4.037420 -3.130573 -0.671452 -23.626728 -16.653777 16.106089 -23.523881 -24.571717 -20.442495 -3.366761 4.694878 -52.071774 2.634192 17.990612 174.187795 -70.140953 -155.718943 28.548436 9.229622 -22.764501 18.066894 18.298143 2.903922 71.850193 5.009148 22.410025 55.463094 80.978542 68.117325 8.939019 9.762457 -17.521004 
0.049182 -1.552875 0.883766 -155.142925 -1.656556 97.348982 13.259175 1.256880 -25.438105 -15.685021 0.244537 49.614915 8.031993 2.514856 -33.191273 0.000000 -0.000000 0.000000 -9.298525 -13.442959 -20.777150 -0.108083 -14.231056 71.419213 -3.212229 -6.325010 -20.949609 0.000000 -0.000000 0.000000 -11.806774 8.680744 15.691275 -5.335151 3.294472 0.728544 -1.072244 3.933862 -2.373978 -1.419285 -25.048517 -17.154388 16.270910 -22.440234 -25.124978 -20.939018 -2.367955 3.602255 -52.969501 1.726287 17.864520 177.642200 -64.674061 -157.487171 37.624911 9.684756 -21.335100 16.511206 17.989770 1.788663 71.800204 5.511882 22.771279 97.727858 81.450892 112.447138 4.676191 10.773008 -16.700472 
0.062276 -1.542816 0.882070 -158.181382 -0.123527 97.032856 16.001447 3.677869 -26.171942 -14.685785 1.835552 54.587803 5.749319 -1.199517 -31.626452 0.000000 -0.000000 0.000000 -12.921498 -13.671081 -23.600239 -2.355190 -12.820171 70.805054 -2.647138 -5.358598 -22.647202 0.000000 -0.000000 0.000000 -10.230113 7.342295 15.764895 -5.266350 3.162824 -0.746846 -1.032775 4.126628 -3.605260 -1.661824 -25.488824 -12.590191 16.767462 -20.257904 -22.061243 -19.880963 -1.915102 5.077831 -57.731453 -0.825255 16.103680 179.635610 -59.555294 -156.239829 37.195464 7.942057 -20.161146 13.813440 16.840194 1.309408 73.058995 10.319165 20.959734 135.271197 75.829950 154.071204 10.532785 15.851929 -9.657342 
0.072745 -1.533794 0.878334 -159.914452 1.095242 95.872015 17.983772 5.590590 -27.819769 -14.023003 2.359063 61.673374 2.531416 -4.651041 -27.776933 0.000000 -0.000000 0.000000 -17.354761 -14.460812 -25.834552 -3.740656 -11.775651 67.464367 -0.221184 -2.251773 -23.304392 0.000000 -0.000000 0.000000 -8.098529 5.549798 17.069035 -4.111461 2.291540 -3.195859 -0.916387 2.766492 -0.628066 1.366893 -18.935262 -18.182058 11.533924 -17.005817 -18.294492 -18.785655 -0.248165 4.119665 -61.713909 -4.702432 16.292193 -178.229607 -56.003365 -153.506051 35.765169 5.360653 -20.826801 11.746613 13.319842 -3.810979 75.002491 18.678694 22.825652 134.946701 69.255014 158.372410 16.970792 31.390302 -11.056474 
0.081430 -1.521593 0.865422 -160.897473 2.158817 94.420555 19.774823 6.769642 -29.504355 -14.612142 2.877652 69.213904 1.294882 -4.856562 -25.220384 0.000000 -0.000000 0.000000 -21.331483 -15.456725 -27.001769 -2.796338 -10.419177 60.371742 2.097666 -1.364936 -20.464309 0.000000 -0.000000 0.000000 -5.981222 4.090949 17.469375 -1.693797 0.985678 -3.255094 0.220239 0.641061 1.447814 1.293515 -11.192654 -19.939934 7.565441 -12.102852 -13.638210 -18.616751 -0.631916 2.384399 -62.596165 -6.642593 18.441738 -177.071827 -52.508181 -150.933750 40.639029 6.736732 -18.262327 12.410060 12.763324 -5.493762 67.298035 20.367119 26.741536 126.662384 68.540660 150.797182 6.526552 14.584222 -19.935366 
0.090281 -1.503443 0.843696 -162.334924 3.706588 91.647318 22.067968 8.373831 -29.146445 -14.123006 3.267479 76.773716 -0.750351 -3.994876 -23.386436 0.000000 -0.000000 0.000000 -24.060051 -14.089695 -25.271200 -1.090346 -8.543236 54.105517 5.025012 0.135134 -19.295829 0.000000 -0.000000 0.000000 -3.482288 2.538703 19.287196 0.806145 0.179270 -2.701300 1.323469 -1.857074 2.478217 1.963144 -3.068941 -19.217688 2.593845 -4.786666 -6.859481 -18.032476 -0.462238 3.207558 -62.185763 -9.064938 19.567352 -175.250704 -51.726702 -148.135546 47.329725 4.682899 -16.770213 11.598487 11.954827 -7.153794 63.525467 20.793432 28.533611 141.960796 75.629341 155.363678 -10.506321 16.416217 -56.558615 
0.098229 -1.487836 0.818598 -163.860144 4.249901 89.061073 22.915498 9.476090 -28.371832 -11.826473 4.325870 83.003003 -1.241870 -1.554840 -23.719529 0.000000 -0.000000 0.000000 -26.362844 -12.567079 -23.999314 1.027184 -5.163874 55.703129 5.387106 4.096894 -23.522840 0.000000 -0.000000 0.000000 -2.148577 0.840892 21.898025 3.202827 -1.386057 -2.408909 3.052109 -3.427112 0.714116 0.818686 -1.747705 -9.893183 -1.733695 3.662688 -0.333115 -18.829950 -1.125425 4.203692 -60.996350 -7.374688 18.502011 -174.940105 -50.317405 -151.930289 46.903939 6.048151 -16.743381 11.151328 10.609610 -7.108856 62.705346 24.527012 25.485922 -177.813058 73.496404 -177.990596 -2.783988 10.291536 -59.968125 
